Coordinates
version=1
nRows=14
nColumns=40
inDegrees=yes

Units are S.I. units (second, meters, Newtons, ...)
If the header above contains a line with 'inDegrees', this indicates whether rotational values are in degrees (yes) or radians (no).

endheader
time	pelvis_tilt	pelvis_list	pelvis_rotation	pelvis_tx	pelvis_ty	pelvis_tz	hip_flexion_r	hip_adduction_r	hip_rotation_r	knee_angle_r	knee_angle_r_beta	ankle_angle_r	subtalar_angle_r	mtp_angle_r	hip_flexion_l	hip_adduction_l	hip_rotation_l	knee_angle_l	knee_angle_l_beta	ankle_angle_l	subtalar_angle_l	mtp_angle_l	lumbar_extension	lumbar_bending	lumbar_rotation	arm_flex_r	arm_add_r	arm_rot_r	elbow_flex_r	pro_sup_r	wrist_flex_r	wrist_dev_r	arm_flex_l	arm_add_l	arm_rot_l	elbow_flex_l	pro_sup_l	wrist_flex_l	wrist_dev_l
      0.37000000	     24.84956199	     -4.83844009	     -1.34433545	     -0.67089142	      0.93081628	      0.24088897	    -29.76960727	      7.81652106	      0.49068279	     12.51150662	      0.21836698	     17.28932432	      0.00000000	      0.00000000	     -0.71829290	     -7.66480079	    -11.69853761	     31.06042647	      0.54210671	      9.60522987	      0.00000000	      0.00000000	    -40.23177519	     -0.42317949	     10.56583840	      7.03011279	     -6.87131762	     -8.89741350	     47.15098868	     89.03422518	    -16.50145491	      3.14558550	     -1.88779359	     -3.33483036	      5.28688289	     14.68215793	     89.03230336	    -18.99901142	     -2.57779039
      0.38000000	     24.14553871	     -4.78028370	     -1.52386624	     -0.65663481	      0.92757468	      0.24106113	    -29.79261370	      7.69188828	      0.38294903	     12.97729116	      0.22649646	     18.33734520	      0.00000000	      0.00000000	      0.32796091	     -7.16376071	    -11.16792405	     26.97569925	      0.47081477	      9.65977183	      0.00000000	      0.00000000	    -39.35913702	     -0.71470994	     11.14160353	      7.46652932	     -7.16105687	     -9.09511359	     48.48796266	     89.02025489	    -16.43196855	      2.75397621	     -2.27838518	     -3.21218346	      5.03907434	     13.53139199	     89.01654478	    -18.75206894	     -2.04862355
      0.39000000	     23.38657264	     -5.15747858	     -1.59822064	     -0.64232036	      0.92394925	      0.24077111	    -29.81778182	      7.99342309	      0.26585597	     13.31559335	      0.23240095	     19.20653571	      0.00000000	      0.00000000	      1.41146618	     -7.18985990	    -10.70758307	     23.23598513	      0.40554445	      9.62735235	      0.00000000	      0.00000000	    -38.44532078	     -0.46577128	     11.68255314	      7.97046383	     -7.52411104	     -9.00964927	     49.84207620	     89.02034817	    -16.34188498	      2.42156709	     -2.80220001	     -3.02754722	      4.73274080	     12.55474353	     88.98359934	    -18.62111368	     -1.63128960
      0.40000000	     22.76193653	     -5.10840380	     -1.97732910	     -0.62782373	      0.92057892	      0.24091474	    -29.83466469	      7.72728562	      0.31849786	     14.07099145	      0.24558513	     20.24620193	      0.00000000	      0.00000000	      2.05034804	     -6.72134346	     -9.95202888	     19.34264553	      0.33759285	      9.01034379	      0.00000000	      0.00000000	    -37.63721255	     -0.80233225	     12.51860384	      8.17858326	     -7.84710138	     -9.42295594	     51.28978058	     88.99974008	    -16.28870761	      2.03370780	     -3.18080774	     -2.93212029	      4.37525321	     11.69523282	     88.96569333	    -18.12698235	     -0.98807756
      0.41000000	     22.10131210	     -5.24887449	     -2.47310249	     -0.61306404	      0.91703081	      0.24122642	    -29.84723056	      7.56105703	      0.40726030	     14.81788538	      0.25862089	     21.16813381	      0.00000000	      0.00000000	      2.64826687	     -6.56054492	     -9.53936613	     15.89466901	      0.27741431	      8.42955990	      0.00000000	      0.00000000	    -36.76432498	     -0.99462030	     13.58183399	      8.26510025	     -8.21113072	     -9.79989861	     52.81859765	     88.99042093	    -16.15501540	      1.75548766	     -3.56949193	     -2.85912427	      3.97904630	     10.98572110	     88.93694358	    -17.44486611	     -0.22049305
      0.42000000	     21.47631318	     -5.51515155	     -2.78453366	     -0.59818166	      0.91347818	      0.24115918	    -29.85727780	      7.57209387	      0.48060121	     15.69114718	      0.27386218	     21.77356193	      0.00000000	      0.00000000	      3.21815626	     -6.57033344	     -8.70347545	     12.98818249	      0.22668655	      7.92281477	      0.00000000	      0.00000000	    -35.92076268	     -0.94350195	     14.37503915	      8.42667848	     -8.57612174	     -9.88825215	     54.18750301	     88.99486182	    -16.12635737	      1.57736929	     -4.04818398	     -2.76972948	      3.35715431	     10.38570200	     88.89779261	    -17.15749424	      0.19036107
      0.43000000	     20.89551064	     -5.76001681	     -3.12305016	     -0.58309355	      0.91004114	      0.24107963	    -29.86514706	      7.51919445	      0.57109309	     16.72369333	      0.29188351	     22.18902086	      0.00000000	      0.00000000	      3.70328888	     -6.61830996	     -7.88086535	     10.65138501	      0.18590174	      7.51228070	      0.00000000	      0.00000000	    -35.10208375	     -0.89860487	     15.07867654	      8.57377942	     -8.90303323	     -9.87599731	     55.43876586	     89.00415621	    -16.15890620	      1.39168096	     -4.54834416	     -2.69421271	      2.72238089	      9.83809869	     88.84633699	    -16.98797781	      0.46423275
      0.44000000	     20.33993130	     -5.94952331	     -3.43611782	     -0.56767725	      0.90673627	      0.24093243	    -29.86985405	      7.38794928	      0.44183574	     17.85033047	      0.31154704	     22.37958682	      0.00000000	      0.00000000	      4.17502550	     -6.66410776	     -7.29770665	      9.02187610	      0.15746144	      7.44550786	      0.00000000	      0.00000000	    -34.28061990	     -0.86516519	     15.64502182	      8.65924861	     -9.24325272	     -9.61720793	     56.62235092	     89.03101601	    -16.14922366	      1.18362612	     -5.00890422	     -2.63842293	      2.19873819	      9.24219955	     88.74539269	    -16.92174221	      0.66422683
      0.45000000	     19.97180236	     -5.76296293	     -4.26936895	     -0.55223790	      0.90417861	      0.24156761	    -29.87598368	      6.62478965	      0.76025419	     19.41781841	      0.33890486	     22.50158357	      0.00000000	      0.00000000	      4.23264231	     -6.37978879	     -7.36357240	      7.72469766	      0.13482141	      6.57199504	      0.00000000	      0.00000000	    -33.70668784	     -1.51160802	     16.69840340	      8.41388334	     -9.46835710	    -10.01018682	     58.08369176	     89.05089792	    -16.52063807	      1.10196670	     -5.45434595	     -2.66032871	      0.91894848	      9.18226424	     88.76779856	    -16.41940168	      0.98099289
      0.46000000	     19.64120672	     -5.68850969	     -4.65702831	     -0.53652456	      0.90168913	      0.24151796	    -29.87860119	      6.13012031	      0.58146748	     21.06722864	      0.36769250	     22.13369330	      0.00000000	      0.00000000	      4.45347500	     -6.21947667	     -7.01143719	      7.36593454	      0.12855981	      6.58568025	      0.00000000	      0.00000000	    -33.11355669	     -1.77587441	     17.09208859	      8.38250993	     -9.68278822	     -9.76302008	     59.09672687	     89.07726322	    -16.55820332	      0.91771520	     -5.83532845	     -2.67643149	      0.42959945	      8.69744482	     88.67366714	    -16.36206331	      1.13221020
      0.47000000	     19.50175619	     -5.15703676	     -5.56622378	     -0.52055469	      0.89992732	      0.24219857	    -29.88188489	      4.90750256	      0.63403637	     23.08442932	      0.40289930	     21.62617807	      0.00000000	      0.00000000	      4.28606620	     -5.61965586	     -7.75487610	      7.32147127	      0.12778378	      6.01353199	      0.00000000	      0.00000000	    -32.72014217	     -2.77180031	     17.84461559	      8.03417470	     -9.79846971	     -9.89985551	     60.37385316	     89.10662572	    -17.00376862	      0.78911378	     -6.26759576	     -2.75265753	     -0.75487206	      8.73379850	     88.65717055	    -16.09307822	      1.22133653
      0.48000000	     19.50914523	     -4.54168630	     -6.31566986	     -0.50443409	      0.89856396	      0.24256919	    -29.88247466	      3.63663498	      0.57817923	     25.37123513	      0.44281159	     20.72521771	      0.00000000	      0.00000000	      4.05033369	     -4.91987731	     -8.48274406	      7.89361598	      0.13776959	      5.70939908	      0.00000000	      0.00000000	    -32.44362052	     -3.76014882	     18.22289264	      7.77755052	     -9.86471984	     -9.72548250	     61.33477009	     89.13270631	    -17.43476150	      0.64130346	     -6.61499192	     -2.82148994	     -1.78065490	      8.59059562	     88.63966671	    -15.93083474	      1.36834139
      0.49000000	     19.64274117	     -3.97806330	     -6.67421111	     -0.48825107	      0.89760132	      0.24240881	    -29.88163682	      2.54633412	      0.11895564	     27.85717803	      0.48619948	     19.14704609	      0.00000000	      0.00000000	      3.82537678	     -4.26323647	     -8.86018498	      9.07461230	      0.15838186	      5.56409603	      0.00000000	      0.00000000	    -32.35508149	     -4.51913101	     18.17449571	      7.48950014	     -9.85228262	     -9.50260463	     62.23653077	     89.15959346	    -17.58726242	      0.40728979	     -6.87355311	     -2.92386658	     -2.21113247	      8.33078518	     88.57245600	    -15.92097986	      1.42251557
      0.50000000	     19.97135159	     -3.03802149	     -7.37745543	     -0.47168360	      0.89724152	      0.24263859	    -29.87965508	      0.85313100	     -0.35592016	     30.61071431	      0.53425775	     17.19636984	      0.00000000	      0.00000000	      3.27667180	     -3.20968677	     -9.91764927	     10.40512886	      0.18160376	      5.06231341	      0.00000000	      0.00000000	    -32.37147331	     -5.80516181	     18.20418210	      7.08192986	     -9.79074285	     -9.25242307	     63.00462640	     89.17893358	    -17.95292472	      0.21309703	     -7.17622265	     -3.04872885	     -2.91296497	      8.30617066	     88.52144013	    -15.94795782	      1.38783291
